<?xml version="1.0" encoding="UTF-8"?>
<svg xmlns="http://www.w3.org/2000/svg" width="1680" height="1180" viewBox="0 0 1680 1180" role="img" aria-labelledby="title desc">
  <title id="title">Engineering Value Stream AS-IS - LBMH.Services.Portal</title>
  <desc id="desc">Feedback diagram with five Findings from 30d SDLC. Same numbers as as-is-value-stream.md and LBMH.Services.Portal-SDLC.json.</desc>
  <defs>
    <style type="text/css"><![CDATA[
      .bg { fill: #f3f2f1; }
      .title { font: 700 22px Segoe UI, Arial, sans-serif; fill: #1b1b1b; }
      .sub { font: 400 11px Segoe UI, Arial, sans-serif; fill: #605e5c; }
      .state { fill: #ffffff; stroke: #605e5c; stroke-width: 1.5; }
      .state-hdr { font: 700 12px Segoe UI, Arial, sans-serif; fill: #201f1e; }
      .act { font: 400 10px Consolas, 'Courier New', monospace; fill: #323130; }
      .metric { font: 600 10px Segoe UI, Arial, sans-serif; fill: #004578; }
      .gate { fill: #deecf9; stroke: #0078d4; stroke-width: 1; }
      .gate-t { font: 700 9px Segoe UI, Arial, sans-serif; fill: #004578; }
      .gate-b { font: 400 9px Segoe UI, Arial, sans-serif; fill: #323130; }
      .find { fill: #fff4ce; stroke: #c19c00; stroke-width: 1.5; }
      .find-n { font: 700 16px Segoe UI, Arial, sans-serif; fill: #8a6116; }
      .find-h { font: 700 11px Segoe UI, Arial, sans-serif; fill: #323130; }
      .find-b { font: 400 10px Segoe UI, Arial, sans-serif; fill: #323130; }
      .waste { fill: #fde7e9; stroke: #d13438; stroke-width: 1.5; }
      .waste-h { font: 700 11px Segoe UI, Arial, sans-serif; fill: #a4262c; }
      .arrow { stroke: #0078d4; stroke-width: 2.5; fill: none; marker-end: url(#arr); }
      .arrow-d { stroke: #d13438; stroke-width: 1.5; stroke-dasharray: 4 3; fill: none; marker-end: url(#arrR); }
      .legend { font: 400 11px Segoe UI, Arial, sans-serif; fill: #323130; }
      .badge { fill: #fff4ce; stroke: #c19c00; stroke-width: 1.5; }
    ]]></style>
    <marker id="arr" markerWidth="9" markerHeight="9" refX="7" refY="3" orient="auto"><path d="M0,0 L7,3 L0,6 Z" fill="#0078d4"/></marker>
    <marker id="arrR" markerWidth="9" markerHeight="9" refX="7" refY="3" orient="auto"><path d="M0,0 L7,3 L0,6 Z" fill="#d13438"/></marker>
  </defs>

  <rect class="bg" width="1680" height="1180"/>
  <text class="title" x="28" y="34">Engineering Value Stream AS-IS</text>
  <text class="sub" x="28" y="54">LBMH.Services.Portal | physical feedback path of one change | metrics 2026-06-16 to 2026-07-16 (~30d, adequacy 93) | lock: svg = md = SDLC.json | pulled 2026-07-16</text>
  <text class="legend" x="1200" y="34">Legend: A Automatic   M Manual</text>
  <text class="legend" x="1200" y="52">Yellow cards = Findings (5) coded on diagram</text>

  <!-- ========== FINDING 1 (top-left) ========== -->
  <rect class="find" x="28" y="72" width="320" height="118" rx="4"/>
  <circle class="badge" cx="48" cy="92" r="12"/>
  <text class="find-n" x="44" y="97">1</text>
  <text class="find-h" x="68" y="97">Don&apos;t Skip the Written Spec</text>
  <text class="find-b" x="40" y="118">Preferred: Spec -&gt; Jira -&gt; Code. Class/386 Jira -&gt; Spec also OK.</text>
  <text class="find-b" x="40" y="132">Real risk = skipping the written spec (gaps hit the PR).</text>
  <text class="find-b" x="40" y="146">Risk = skip written spec, not the order.</text>
  <text class="find-b" x="40" y="160">Gaps (/api/, mocks, schema) then hit PR.</text>
  <text class="metric" x="40" y="178">Attacks with UC-1</text>

  <!-- ========== FINDING 2 (top-center) ========== -->
  <rect class="find" x="370" y="72" width="320" height="118" rx="4"/>
  <circle class="badge" cx="390" cy="92" r="12"/>
  <text class="find-n" x="386" y="97">2</text>
  <text class="find-h" x="410" y="97">Human Review ~2.8h (Pretty Good)</text>
  <text class="find-b" x="382" y="118">Non-instant PRs: median open ~2.8h (n=8) =</text>
  <text class="find-b" x="382" y="132">person code review wait. That is pretty good.</text>
  <text class="find-b" x="382" y="146">All-PR ~63s = owner-merge skew, not SLA.</text>
  <text class="find-b" x="382" y="160">Optional: Lore + /pre-pr-review before Ready.</text>
  <text class="metric" x="382" y="178">Attacks with UC-2</text>

  <!-- ========== FINDING 3 (top-right) ========== -->
  <rect class="find" x="712" y="72" width="340" height="118" rx="4"/>
  <circle class="badge" cx="732" cy="92" r="12"/>
  <text class="find-n" x="728" y="97">3</text>
  <text class="find-h" x="752" y="97">No Required Hard Sonar Gate on PR</text>
  <text class="find-b" x="724" y="118">Branch policies = none. Human review only.</text>
  <text class="find-b" x="724" y="132">Sonar does NOT run in /deploy 440/441/472.</text>
  <text class="find-b" x="724" y="146">Win = UC-4 Hard Sonar gate: Sonar + lint + &gt;=90%.</text>
  <text class="find-b" x="724" y="160">That is ONE use case (UC-4), not two Sonars.</text>
  <text class="metric" x="724" y="178">Attacks with UC-4 Hard Sonar gate</text>

  <!-- ========== STATE ROW ========== -->
  <!-- y base for states = 320 -->

  <!-- Gate: laptop -> PR -->
  <rect class="gate" x="218" y="250" width="120" height="52" rx="3"/>
  <text class="gate-t" x="226" y="266">M On-demand</text>
  <text class="gate-b" x="226" y="280">PR opened</text>
  <text class="gate-b" x="226" y="293">(no quality gates)</text>

  <!-- Gate: PR -> main -->
  <rect class="gate" x="438" y="250" width="130" height="52" rx="3"/>
  <text class="gate-t" x="446" y="266">M Review done</text>
  <text class="gate-b" x="446" y="280">PR completed</text>
  <text class="gate-b" x="446" y="293">(no required checks)</text>

  <!-- Gate: main -> deploy -->
  <rect class="gate" x="668" y="250" width="130" height="52" rx="3"/>
  <text class="gate-t" x="676" y="266">M /deploy</text>
  <text class="gate-b" x="676" y="280">Choose 472/440/441</text>
  <text class="gate-b" x="676" y="293">Manual only</text>

  <!-- Gate: deploy -> Dev -->
  <rect class="gate" x="918" y="250" width="120" height="52" rx="3"/>
  <text class="gate-t" x="926" y="266">A Pipeline OK</text>
  <text class="gate-b" x="926" y="280">awsAccount=Dev</text>
  <text class="gate-b" x="926" y="293">auto in YAML job</text>

  <!-- Gate: Dev -> Prod (via re-run) -->
  <rect class="gate" x="1160" y="250" width="140" height="52" rx="3"/>
  <text class="gate-t" x="1168" y="266">M On-demand</text>
  <text class="gate-b" x="1168" y="280">awsAccount=Prod</text>
  <text class="gate-b" x="1168" y="293">second promote</text>

  <!-- State 1: Local -->
  <rect class="state" x="28" y="320" width="190" height="210" rx="4"/>
  <text class="state-hdr" x="40" y="342">Local workstation</text>
  <text class="act" x="40" y="364">M Spec / Jira / analysis</text>
  <text class="act" x="40" y="380">M Coding</text>
  <text class="act" x="40" y="396">A Build (~15s)</text>
  <text class="act" x="40" y="412">A Scoped test (~4s)</text>
  <text class="act" x="40" y="428">A npm build (~27s)</text>
  <text class="act" x="40" y="444">M Local run :5000</text>
  <text class="metric" x="40" y="470">PT ~46s measured</text>
  <text class="sub" x="40" y="488">fail ~0 on sample</text>
  <text class="sub" x="40" y="508">Finding 1</text>
  <circle class="badge" cx="200" cy="332" r="11"/>
  <text class="find-n" x="196" y="337">1</text>

  <!-- State 2: PR -->
  <rect class="state" x="258" y="320" width="190" height="210" rx="4"/>
  <text class="state-hdr" x="270" y="342">Pull request</text>
  <text class="act" x="270" y="364">M Code review (human)</text>
  <text class="act" x="270" y="380">M Optional /pre-pr-review</text>
  <text class="act" x="270" y="396">A Required checks: none</text>
  <text class="metric" x="270" y="422">PT ~2.8h (n=8)</text>
  <text class="sub" x="270" y="440">all-PR med ~63s = skew</text>
  <text class="sub" x="270" y="458">policies = []</text>
  <text class="sub" x="270" y="488">Findings 2, 3</text>
  <text class="sub" x="270" y="508">SDLC processingTime=10177s</text>
  <circle class="badge" cx="430" cy="332" r="11"/>
  <text class="find-n" x="426" y="337">2</text>
  <circle class="badge" cx="430" cy="360" r="11"/>
  <text class="find-n" x="426" y="365">3</text>

  <!-- State 3: main -->
  <rect class="state" x="488" y="320" width="190" height="210" rx="4"/>
  <text class="state-hdr" x="500" y="342">main branch</text>
  <text class="act" x="500" y="364">A Post-merge CI: none</text>
  <text class="act" x="500" y="380">M Decide deploy package</text>
  <text class="act" x="500" y="396">  472 App / 440 Api / 441</text>
  <text class="metric" x="500" y="422">PT auto = 0</text>
  <text class="sub" x="500" y="440">build.yaml orphaned</text>
  <text class="sub" x="500" y="458">merge does NOT queue CD</text>
  <text class="sub" x="500" y="488">Finding 5</text>
  <circle class="badge" cx="660" cy="332" r="11"/>
  <text class="find-n" x="656" y="337">5</text>

  <!-- State 4: Manual deploy -->
  <rect class="state" x="718" y="320" width="210" height="210" rx="4"/>
  <text class="state-hdr" x="730" y="342">Manual deploy pipelines</text>
  <text class="act" x="730" y="364">M Cursor /deploy trigger</text>
  <text class="act" x="730" y="380">A App 472 ~74s | 0% (33/33)</text>
  <text class="act" x="730" y="396">A Api 440 ~616s | 0% (45/45)</text>
  <text class="act" x="730" y="412">A Infra 441 ~585s | 17.6%</text>
  <text class="metric" x="730" y="438">trigger: Manual (none)</text>
  <text class="sub" x="730" y="456">Dev Infra fail 23.1%</text>
  <text class="sub" x="730" y="474">386 Dev+Prod green 2026-07-16</text>
  <text class="sub" x="730" y="500">Finding 5 (healthy when run)</text>
  <circle class="badge" cx="910" cy="332" r="11"/>
  <text class="find-n" x="906" y="337">5</text>

  <!-- State 5: Dev -->
  <rect class="state" x="968" y="320" width="190" height="210" rx="4"/>
  <text class="state-hdr" x="980" y="342">Dev environment</text>
  <text class="act" x="980" y="364">A CFN UPDATE ~293s</text>
  <text class="act" x="980" y="380">A ECS lbmhportal ~263s</text>
  <text class="act" x="980" y="396">M Smoke (not measured)</text>
  <text class="metric" x="980" y="422">CFN fail 0% (32/32)</text>
  <text class="sub" x="980" y="440">acct 503561451195</text>
  <text class="sub" x="980" y="458">ADO Dev: App 0/19</text>
  <text class="sub" x="980" y="474">Api 0/26 / Infra 23.1%</text>
  <text class="sub" x="980" y="508">stage=dev</text>

  <!-- State 6: Prod -->
  <rect class="state" x="1198" y="320" width="190" height="210" rx="4"/>
  <text class="state-hdr" x="1210" y="342">Prod environment</text>
  <text class="act" x="1210" y="364">A CFN UPDATE ~295s</text>
  <text class="act" x="1210" y="380">A ECS rollout ~257s</text>
  <text class="act" x="1210" y="396">M Smoke (not measured)</text>
  <text class="metric" x="1210" y="422">CFN fail 0% (22/22)</text>
  <text class="sub" x="1210" y="440">acct 140023376801</text>
  <text class="sub" x="1210" y="458">ADO Prod: App 0/14</text>
  <text class="sub" x="1210" y="474">Api 0/19 / Infra 0/4</text>
  <text class="sub" x="1210" y="508">stage=app</text>

  <!-- QC side loop box -->
  <rect class="waste" x="1418" y="320" width="230" height="210" rx="4"/>
  <text class="waste-h" x="1430" y="342">QualityCheck 445</text>
  <text class="act" x="1430" y="364">M Queue (Manual only)</text>
  <text class="act" x="1430" y="380">A Coverlet + Mend + Sonar</text>
  <text class="metric" x="1430" y="406">PT ~669s | fail ~80%</text>
  <text class="sub" x="1430" y="424">Coverlet ~87.7% &lt; 90%</text>
  <text class="sub" x="1430" y="440">NOT on /deploy 440/441/472</text>
  <text class="sub" x="1430" y="456">Sonar is here, not in CD</text>
  <text class="sub" x="1430" y="480">Side loop only</text>
  <text class="sub" x="1430" y="508">Finding 4</text>
  <circle class="badge" cx="1630" cy="332" r="11"/>
  <text class="find-n" x="1626" y="337">4</text>

  <!-- Flow arrows between states -->
  <path class="arrow" d="M218 420 H258"/>
  <path class="arrow" d="M448 420 H488"/>
  <path class="arrow" d="M678 420 H718"/>
  <path class="arrow" d="M928 420 H968"/>
  <path class="arrow" d="M1158 420 H1198"/>
  <!-- dashed to QC from PR and main -->
  <path class="arrow-d" d="M448 480 C 900 560, 1300 560, 1418 420"/>
  <text class="gate-t" x="980" y="560" fill="#d13438">M optional side loop</text>

  <!-- ========== FINDING 4 (bottom-left) ========== -->
  <rect class="find" x="28" y="580" width="520" height="130" rx="4"/>
  <circle class="badge" cx="48" cy="600" r="12"/>
  <text class="find-n" x="44" y="605">4</text>
  <text class="find-h" x="68" y="605">Coverlet ~87.7% Blocks UC-4 Hard Sonar Gate (Not a 2nd Sonar UC)</text>
  <text class="find-b" x="40" y="628">445 Manual side loop only - NOT on /deploy. ~80% fail; Coverlet Api.Tests ~87.7% &lt; 90%</text>
  <text class="find-b" x="40" y="644">while tests pass. Cannot flip UC-4 Hard Sonar gate tomorrow (would freeze merges).</text>
  <text class="find-b" x="40" y="660">UC-3 = Story AC proof (scoped tests + verification.md). Not Sonar. Not a %.</text>
  <text class="find-b" x="40" y="676">Then UC-4 Phase A hygiene -&gt; Phase B required Sonar + lint + &gt;=90%.</text>
  <text class="metric" x="40" y="698">Attacks with UC-3 (Story AC proof now) + UC-4 (Hard Sonar gate later)</text>

  <!-- ========== FINDING 5 (bottom-right) ========== -->
  <rect class="find" x="580" y="580" width="520" height="130" rx="4"/>
  <circle class="badge" cx="600" cy="600" r="12"/>
  <text class="find-n" x="596" y="605">5</text>
  <text class="find-h" x="620" y="605">Manual Post-Merge Deploy - Improve with Auto Dev Pipeline</text>
  <text class="find-b" x="592" y="628">Defs 440 / 441 / 472 Manual - merge never queues CD. No Sonar in those pipelines.</text>
  <text class="find-b" x="592" y="644">When run: App 0% (33/33), Api 0% (45/45). 386 Dev+Prod green today. Win = auto Dev</text>
  <text class="find-b" x="592" y="660">(472/440). Prod stays Manual. Never default 441 (Dev Infra 23.1%).</text>
  <text class="find-b" x="592" y="676">Merge to first deploy start not measured (blank in SDLC).</text>
  <text class="metric" x="592" y="698">Attacks with UC-5 (auto-queue Dev 472/440; Prod Manual)</text>

  <!-- Foot scoreboard -->
  <rect class="state" x="28" y="740" width="1624" height="160" rx="4"/>
  <text class="state-hdr" x="40" y="762">AS-IS station scoreboard (30d) - same numbers as SDLC.json</text>
  <text class="act" x="40" y="786">Local PT ~46s | PR reviewish ~2.8h (n=8) | main auto PT 0 | App 472 ~74s 0% (33/33) | Api 440 ~616s 0% (45/45) | Infra 441 ~585s 17.6%</text>
  <text class="act" x="40" y="806">QC 445 ~669s ~80% fail | Dev CFN ~293s 0% (32/32)* | Prod CFN ~295s 0% (22/22)* | *CFN 2026-07-15; ADO includes 2026-07-16 386 runs</text>
  <text class="metric" x="40" y="830">Finding to UC: 1 skip-spec-&gt;UC-1 | 2 Lore+/pre-pr-&gt;UC-2 | 3+4 UC-4 Hard Sonar gate + UC-3 Story AC proof | 5 Manual CD-&gt;UC-5 auto Dev</text>
  <text class="sub" x="40" y="854">Narrative: as-is-value-stream.md | Use cases: ai-use-case-playbook.md | Machine metrics: LBMH.Services.Portal-SDLC.json</text>
  <text class="sub" x="40" y="874">AS-IS only (practice format). No TO-BE diagram - TO-BE = adopt UC-1 to UC-5. Copies: dmares/artifacts/a4 + .portal-work/LBMH20-386</text>

  <text class="legend" x="28" y="940">Practice exercise pattern: state boxes (M/A activities) + transition gates (trigger + checks) + numbered Finding callouts with 30d evidence.</text>
  <text class="sub" x="28" y="970">Empty PT / fail = not measured on purpose. Do not invent coding time, smoke duration, or merge-to-deploy wait.</text>
</svg>
